<?xml version="1.0" encoding="UTF-8" standalone="no"?>
<!-- Created with Inkscape (http://www.inkscape.org/) -->

<svg
   version="1.1"
   id="svg2"
   xml:space="preserve"
   width="256.98666"
   height="256.98666"
   viewBox="0 0 256.98666 256.98666"
   sodipodi:docname="Hewlett_Packard.eps"
   xmlns:inkscape="http://www.inkscape.org/namespaces/inkscape"
   xmlns:sodipodi="http://sodipodi.sourceforge.net/DTD/sodipodi-0.dtd"
   xmlns="http://www.w3.org/2000/svg"
   xmlns:svg="http://www.w3.org/2000/svg"><defs
     id="defs6" /><sodipodi:namedview
     id="namedview4"
     pagecolor="#ffffff"
     bordercolor="#666666"
     borderopacity="1.0"
     inkscape:pageshadow="2"
     inkscape:pageopacity="0.0"
     inkscape:pagecheckerboard="0" /><g
     id="g8"
     inkscape:groupmode="layer"
     inkscape:label="ink_ext_XXXXXX"
     transform="matrix(1.3333333,0,0,-1.3333333,0,256.98667)"><g
       id="g10"
       transform="scale(0.1)"><path
         d="M 0,1927.44 H 1927.44 V 0 H 0 v 1927.44"
         style="fill:#ffffff;fill-opacity:1;fill-rule:evenodd;stroke:none"
         id="path12" /><path
         d="m 191.238,896.352 84.84,244.208 h 36.449 L 274.82,1032.75 h 21.368 v 0 c 21.996,0 33.308,-9.43 27.652,-28.29 -5.656,-18.855 -37.707,-108.108 -37.707,-108.108 v 0 h -37.082 l 37.082,105.598 v 0 c 1.258,6.28 1.258,11.94 -6.285,11.94 v 0 h -11.309 l -41.48,-117.538 h -35.821 v 0"
         style="fill:#231f20;fill-opacity:1;fill-rule:evenodd;stroke:none"
         id="path14" /><path
         d="M 416.98,1033.36 H 358.324 L 273.813,787.832 h 35.949 l 37.468,108.555 h 33.168 v 0 c 26.489,0 30.903,10.097 35.95,24.617 v 0 l 27.117,77.012 v 0 c 9.465,25.874 -8.828,35.344 -26.485,35.344 z m -10.093,-28.4 c 0,0 -26.489,-75.12 -27.117,-78.905 -0.633,-3.789 -3.79,-10.731 -10.094,-10.731 v 0 h -15.91 l 34.199,99.106 h 15.769 v 0 c 5.676,0 5.043,-4.42 3.153,-9.47 v 0 0"
         style="fill:#231f20;fill-opacity:1;fill-rule:evenodd;stroke:none"
         id="path16" /><path
         d="m 261.301,819.758 c -65.379,21.047 -112.375,78.926 -112.375,144.523 0,57.659 40.812,115.849 95.304,144.769 v 0 l 11.329,31.51 H 75.0391 v 0 c -26.0196,0 -47.1133,-21.18 -47.1133,-47.2 v 0 -258.157 0 c 0,-26.027 21.0937,-47.371 47.1133,-47.371 v 0 H 249.895 l 11.406,31.926 v 0"
         style="fill:#231f20;fill-opacity:1;fill-rule:evenodd;stroke:none"
         id="path18" /><path
         d="m 333.297,1140.56 h 221.91 v 0 c 26.078,0 47.219,-20.76 47.219,-46.86 v 0 -258.845 0 c 0,-26.101 -21.141,-47.023 -47.219,-47.023 v 0 H 332.035 l 9.5,28.473 v 0 c 79.188,11.66 139.613,73.476 139.613,147.976 0,80.149 -69.941,145.619 -157.937,149.749 v 0 l 10.086,26.53 v 0"
         style="fill:#231f20;fill-opacity:1;fill-rule:evenodd;stroke:none"
         id="path20" /><path
         d="M 1785.93,925.406 H 1682.8 V 786.41 h 102.5 v 0 c 37.09,0 39.61,35.852 39.61,55.348 v 0 40.879 0 c 0,24.531 -12.58,42.769 -38.98,42.769 z m 6.91,-47.801 v -39.621 c 0,-11.953 -6.29,-22.644 -17.6,-22.644 v 0 h -60.37 v 81.133 h 62.88 v 0 c 9.43,0 15.72,-10.063 15.09,-18.868 v 0 0"
         style="fill:#231f20;fill-opacity:1;fill-rule:evenodd;stroke:none"
         id="path22" /><path
         d="m 1638.54,840.445 c 7.57,6.313 12.61,15.782 12.61,41.024 0,28.402 -19.55,44.183 -42.25,44.183 v 0 h -92.7 V 786.168 h 31.53 v 41.023 h 54.23 v 0 c 12.61,0 18.92,-10.097 18.92,-15.781 v 0 -25.242 h 30.27 v 0 c 0,0 0,20.828 0,29.031 0,8.207 -2.52,20.196 -12.61,25.246 z m -32.79,15.782 h -58.02 v 40.39 h 54.23 v 0 c 15.77,0 18.92,-11.992 18.92,-18.933 0,-6.942 -3.15,-21.457 -15.13,-21.457 v 0 0"
         style="fill:#231f20;fill-opacity:1;fill-rule:evenodd;stroke:none"
         id="path24" /><path
         d="m 1428.58,925.383 h -41.49 l -55.95,-119.457 v -19.488 h 25.15 l 11.31,25.148 h 80.32 l 11.46,-25.148 h 32.68 z m -47.78,-84.879 27.03,59.101 26.92,-59.101 h -53.95 v 0"
         style="fill:#231f20;fill-opacity:1;fill-rule:evenodd;stroke:none"
         id="path26" /><path
         d="m 1185.34,786.293 v 139.23 h 32.11 v -52.289 h 13.85 l 54.79,52.289 h 42.81 l -67.37,-65.519 56.04,-55.441 v -18.27 h -23.93 l -59.82,57.961 h -16.37 v -57.961 h -32.11 v 0"
         style="fill:#231f20;fill-opacity:1;fill-rule:evenodd;stroke:none"
         id="path28" /><path
         d="m 1016.6,892.648 v -73.476 c 0,-14.445 8.79,-32.66 32.65,-32.66 v 0 h 76.62 v 0 c 17.59,0 32.03,11.933 32.03,32.66 v 0 12.558 h -31.4 v 0 c 0,-6.281 -1.26,-16.332 -13.19,-16.332 v 0 h -54.63 v 0 c -3.77,0 -10.05,2.516 -10.05,12.563 v 0 55.266 0 c 0,0 -1.89,12.562 10.67,12.562 v 0 h 55.27 v 0 c 5.02,0 10.67,-9.422 11.3,-15.703 v 0 h 32.03 v 11.934 0 c 0,11.933 -11.93,32.656 -32.03,33.281 v 0 h -77.24 v 0 c -15.08,0 -32.03,-16.957 -32.03,-32.653 v 0 0"
         style="fill:#231f20;fill-opacity:1;fill-rule:evenodd;stroke:none"
         id="path30" /><path
         d="M 938.82,925.652 H 897.199 L 832.242,786.164 h 34.055 l 11.351,25.246 h 80.582 l 11.493,-25.246 h 32.797 z m -47.929,-85.207 27.117,59.332 26.488,-59.332 h -53.605 v 0"
         style="fill:#231f20;fill-opacity:1;fill-rule:evenodd;stroke:none"
         id="path32" /><path
         d="M 796.23,925.441 H 694.949 V 786.375 h 32.082 v 39.016 h 69.199 v 0 c 18.868,0 40.258,10.695 40.258,49.711 0,39.64 -23.277,50.339 -40.258,50.339 z m -7.55,-71.105 h -61.649 v 42.16 h 59.762 v 0 c 15.727,0 15.727,-15.101 15.727,-21.394 0,-6.293 0,-20.766 -13.84,-20.766 v 0 0"
         style="fill:#231f20;fill-opacity:1;fill-rule:evenodd;stroke:none"
         id="path34" /><path
         d="M 694.949,1138.29 V 999.215 h 32.078 v 55.375 h 83.664 v -55.375 h 32.079 v 139.075 h -32.079 v -54.75 h -83.664 v 54.75 h -32.078 v 0"
         style="fill:#231f20;fill-opacity:1;fill-rule:evenodd;stroke:none"
         id="path36" /><path
         d="M 1004.85,1138.38 H 897.793 v 0 c -14.484,0 -22.039,-8.2 -22.039,-20.8 v 0 -100.18 0 c 0,-8.2 7.555,-18.279 20.148,-18.279 v 0 h 108.948 v 28.989 h -96.983 v 26.46 h 80.61 v 28.98 h -80.61 v 25.84 h 96.983 v 28.99 0"
         style="fill:#231f20;fill-opacity:1;fill-rule:evenodd;stroke:none"
         id="path38" /><path
         d="m 1263.33,1138.23 v -118.22 c 0,-10.69 8.18,-20.744 22.63,-20.744 v 0 h 94.31 v 28.924 h -84.88 v 110.04 h -32.06 v 0"
         style="fill:#231f20;fill-opacity:1;fill-rule:evenodd;stroke:none"
         id="path40" /><path
         d="M 1628.62,999.109 V 1109.4 h 46.93 v 28.99 H 1550.2 v -28.99 h 46.3 V 999.109 h 32.12 v 0"
         style="fill:#231f20;fill-opacity:1;fill-rule:evenodd;stroke:none"
         id="path42" /><path
         d="m 1777.16,999.023 v 110.427 h 46.97 v 29.03 h -125.47 v -29.03 H 1745 V 999.023 h 32.16 v 0"
         style="fill:#231f20;fill-opacity:1;fill-rule:evenodd;stroke:none"
         id="path44" /><path
         d="m 1526.66,1138.32 h -106.98 v 0 c -14.48,0 -22.03,-8.19 -22.03,-20.78 v 0 -100.1 0 c 0,-8.19 7.55,-18.26 20.14,-18.26 v 0 h 108.87 v 28.96 h -96.91 v 26.45 h 80.55 v 28.95 h -80.55 v 25.82 h 96.91 v 28.96 0"
         style="fill:#231f20;fill-opacity:1;fill-rule:evenodd;stroke:none"
         id="path46" /><path
         d="m 1175.68,998.973 c -9.46,0 -18.61,14.207 -20.5,21.157 v 0 l -23.66,72.93 -30.91,-94.087 h -19.56 v 0 c -9.46,0 -17.66,14.527 -19.56,21.467 v 0 l -38.48,118.08 h 32.17 l 29.66,-95.34 31.54,94.71 h 30.28 l 31.55,-94.71 29.65,95.34 h 32.17 l -45.42,-139.547 h -18.93 v 0"
         style="fill:#231f20;fill-opacity:1;fill-rule:evenodd;stroke:none"
         id="path48" /><path
         d="m 1889.66,1130.25 c -6.09,6.05 -13.45,9.09 -22.09,9.09 -8.58,0 -15.9,-3.04 -21.96,-9.09 -6.09,-6.09 -9.13,-13.43 -9.13,-22.01 0,-8.67 3.02,-16.04 9.05,-22.13 6.06,-6.12 13.4,-9.17 22.04,-9.17 8.64,0 16,3.05 22.09,9.17 6.09,6.12 9.13,13.49 9.13,22.13 0,8.61 -3.04,15.94 -9.13,22.01 z m -3.1,-41.12 c -5.21,-5.27 -11.54,-7.9 -18.99,-7.9 -7.44,0 -13.77,2.63 -18.98,7.9 -5.19,5.26 -7.78,11.64 -7.78,19.11 0,7.42 2.6,13.75 7.82,18.99 5.24,5.27 11.55,7.9 18.94,7.9 7.42,0 13.75,-2.63 18.99,-7.9 5.21,-5.24 7.82,-11.57 7.82,-18.99 0,-7.47 -2.61,-13.85 -7.82,-19.11 v 0 0"
         style="fill:#231f20;fill-opacity:1;fill-rule:evenodd;stroke:none"
         id="path50" /><path
         d="m 1881.46,1091.63 c -0.14,0.28 -0.24,0.88 -0.3,1.79 -0.05,0.9 -0.08,1.75 -0.08,2.54 v 0 2.51 0 c 0,1.73 -0.62,3.49 -1.87,5.31 -1.25,1.81 -3.21,2.93 -5.9,3.36 2.12,0.34 3.78,0.89 4.97,1.65 2.23,1.45 3.35,3.7 3.35,6.76 0,4.3 -1.77,7.19 -5.31,8.66 -1.98,0.82 -5.09,1.23 -9.34,1.23 v 0 H 1855 v -34.23 h 6.03 v 13.5 h 4.76 v 0 c 3.2,0 5.44,-0.36 6.71,-1.1 2.15,-1.27 3.23,-3.9 3.23,-7.86 v 0 -2.71 l 0.13,-1.11 v 0 c 0.02,-0.14 0.05,-0.27 0.08,-0.38 0.03,-0.12 0.06,-0.23 0.08,-0.34 v 0 h 5.66 z m -9.26,18.05 c -1.27,-0.5 -3.18,-0.76 -5.74,-0.76 v 0 h -5.43 v 12.4 h 5.14 v 0 c 3.34,0 5.77,-0.42 7.29,-1.27 1.51,-0.85 2.27,-2.52 2.27,-5.01 0,-2.64 -1.18,-4.42 -3.53,-5.36 v 0 0"
         style="fill:#231f20;fill-opacity:1;fill-rule:evenodd;stroke:none"
         id="path52" /></g></g></svg>
